<svg xmlns="http://www.w3.org/2000/svg" width="256" height="256" viewBox="0 0 100 100"><rect width="100" height="100" rx="20" fill="#ffffff"></rect><path fill="#000000" d="M31.19 21.38L31.19 21.38Q35.58 21.65 38.62 21.78Q41.65 21.91 43.67 22.00L43.67 22.00Q45.95 22.09 47.54 22.00L47.54 22.00Q49.12 21.91 51.84 21.56L51.84 21.56Q54.13 21.29 57.95 20.72Q61.78 20.15 67.49 19.19L67.49 19.19Q65.47 21.21 64.37 22.83Q63.27 24.46 62.65 25.60L62.65 25.60Q61.95 27.01 61.69 27.97L61.69 27.97Q61.51 28.85 62.04 32.37Q62.57 35.88 63.53 40.67Q64.50 45.46 65.64 50.87Q66.79 56.28 67.93 60.98Q69.07 65.68 69.99 68.98Q70.92 72.27 71.36 72.89L71.36 72.89Q72.67 74.73 73.03 75.30Q73.38 75.87 74.26 76.31L74.26 76.31Q74.61 76.49 75.40 76.84L75.40 76.84Q76.10 77.19 77.29 77.72Q78.47 78.25 80.32 78.95L80.32 78.95Q76.89 79.13 74.43 79.17Q71.97 79.21 70.39 79.30L70.39 79.30Q68.54 79.39 67.22 79.48L67.22 79.48Q65.91 79.48 64.06 79.65L64.06 79.65Q62.48 79.83 59.97 80.01Q57.47 80.18 54.13 80.36L54.13 80.36Q55.89 79.13 56.99 78.12Q58.08 77.11 58.70 76.40L58.70 76.40Q59.40 75.52 59.67 74.82L59.67 74.82Q59.84 74.03 59.93 72.45L59.93 72.45Q60.02 71.04 59.93 68.71Q59.84 66.38 59.49 62.60L59.49 62.60L36.37 64.98Q35.50 66.47 35.06 67.57Q34.62 68.67 34.44 69.46L34.44 69.46Q34.18 70.43 34.27 71.04L34.27 71.04Q34.44 71.74 34.88 72.71L34.88 72.71Q35.32 73.59 36.16 74.78Q36.99 75.96 38.66 77.54L38.66 77.54Q36.46 77.46 34.18 77.46Q31.89 77.46 29.96 77.54L29.96 77.54Q27.67 77.63 25.48 77.72L25.48 77.72Q23.28 77.81 20.47 77.98L20.47 77.98Q18.09 78.16 14.89 78.38Q11.68 78.60 7.99 78.95L7.99 78.95Q10.27 77.90 11.85 76.80Q13.44 75.70 14.49 74.73L14.49 74.73Q15.72 73.68 16.60 72.71L16.60 72.71Q17.21 71.83 19.06 68.62Q20.91 65.42 23.24 61.02Q25.56 56.63 28.16 51.62Q30.75 46.61 32.86 42.17Q34.97 37.73 36.29 34.48Q37.61 31.23 37.61 30.26L37.61 30.26Q37.43 29.12 36.73 27.71L36.73 27.71Q36.11 26.48 34.84 24.90Q33.56 23.32 31.19 21.38ZM40.15 57.68L58.44 56.10Q57.91 53.02 57.47 50.78Q57.03 48.54 56.77 47.05L56.77 47.05Q56.41 45.29 56.24 43.97L56.24 43.97Q55.97 42.74 55.62 40.81L55.62 40.81Q55.27 39.14 54.79 36.63Q54.30 34.13 53.60 30.61L53.60 30.61Q48.59 40.63 45.82 46.12Q43.05 51.62 41.82 54.17L41.82 54.17Q40.33 57.15 40.15 57.68L40.15 57.68ZM85.33 71.22L85.33 71.22Q88.49 70.78 90.30 72.27Q92.10 73.77 92.01 76.40L92.01 76.40Q91.92 77.72 91.48 78.51Q91.04 79.30 90.30 79.70Q89.55 80.09 88.54 80.31Q87.53 80.53 86.21 80.71L86.21 80.71Q84.89 80.97 83.66 80.58Q82.43 80.18 81.46 79.39Q80.50 78.60 79.92 77.63Q79.35 76.67 79.35 75.70L79.35 75.70Q79.35 74.64 79.92 73.90Q80.50 73.15 81.42 72.58Q82.34 72.01 83.35 71.70Q84.36 71.39 85.33 71.22Z"></path></svg>